<svg width="32" height="32" viewBox="0 0 48 48" fill="none" xmlns="http://www.w3.org/2000/svg">
  <path d="M31.52 22.15C31.52 26.5 27.98 30.03 23.64 30.03C19.29 30.03 15.76 26.49 15.76 22.15C15.76 17.8 19.3 14.27 23.64 14.27C27.98 14.27 31.52 17.81 31.52 22.15ZM47.27 4.99V12.74V24.4C47.27 43.67 28.12 60 23.64 60C19.16 60 0 43.67 0 24.4V12.73V4.99C0 4.99 9.67 0 23.63 0C37.6 0 47.27 4.99 47.27 4.99ZM35.81 22.15C35.81 15.43 30.35 9.97 23.63 9.97C16.91 9.97 11.45 15.43 11.45 22.15C11.45 28.13 15.79 33.12 21.48 34.14V45.96H25.78V34.14C31.48 33.12 35.81 28.13 35.81 22.15Z" fill="#2892FA"/>
</svg>
