<svg width="218" height="60" viewBox="0 0 218 60" fill="none" xmlns="http://www.w3.org/2000/svg">
<defs>
<linearGradient id="shield-gradient" x1="0" y1="0" x2="47.27" y2="60" gradientUnits="userSpaceOnUse">
<stop offset="0%" stop-color="hsl(200, 75%, 50%)"/>
<stop offset="100%" stop-color="hsl(200, 85%, 38%)"/>
</linearGradient>
</defs>
<path d="M31.52 22.15C31.52 26.5 27.98 30.03 23.64 30.03C19.29 30.03 15.76 26.49 15.76 22.15C15.76 17.8 19.3 14.27 23.64 14.27C27.98 14.27 31.52 17.81 31.52 22.15ZM47.27 4.99V12.74V24.4C47.27 43.67 28.12 60 23.64 60C19.16 60 0 43.67 0 24.4V12.73V4.99C0 4.99 9.67 0 23.63 0C37.6 0 47.27 4.99 47.27 4.99ZM35.81 22.15C35.81 15.43 30.35 9.97 23.63 9.97C16.91 9.97 11.45 15.43 11.45 22.15C11.45 28.13 15.79 33.12 21.48 34.14V45.96H25.78V34.14C31.48 33.12 35.81 28.13 35.81 22.15Z" fill="url(#shield-gradient)"/>
<path d="M78.47 20.0601C75.68 18.3001 73.41 17.4001 70.23 17.4001C66.2 17.4001 63.36 19.2101 63.36 22.1801C63.36 24.6801 65.1 25.9501 69.23 26.4701L71.65 26.7601C76.31 27.3301 80.3 29.2201 80.3 34.0701C80.3 39.5601 75.33 42.4201 69.37 42.4201C65.72 42.4201 62.29 41.2501 59.83 39.7901V35.8001C62.43 37.8701 65.87 39.1401 69.37 39.1401C73.48 39.1401 76.7 37.4701 76.7 34.3601C76.7 31.8001 74.4 30.5901 70.11 30.0501L67.55 29.7401C63.01 29.1901 59.75 27.0901 59.75 22.3901C59.75 17.0801 64.44 14.1101 70.24 14.1101C73.65 14.1101 76.08 14.9001 78.5 16.3001L78.47 20.0601ZM103.28 42.0301H100.06V39.5301C98.59 41.2801 96.4 42.4201 93.47 42.4201C88.22 42.4201 84.13 38.3301 84.13 32.6901C84.13 27.0501 88.22 22.9601 93.47 22.9601C96.4 22.9601 98.58 24.1001 100.06 25.8701V23.3501H103.28V42.0301ZM87.41 32.6901C87.41 36.4101 90.01 39.4101 93.84 39.4101C97.61 39.4101 100.25 36.5201 100.25 32.6901C100.25 28.8801 97.62 25.9901 93.84 25.9901C89.95 25.9901 87.41 28.9801 87.41 32.6901ZM122.05 26.2801H114.87V42.0301H111.65V26.2801H107.5V23.3501H111.65V20.1701C111.65 16.2601 113.61 13.3301 118.01 13.3301C119.63 13.3301 120.87 13.6601 122.16 14.2701V17.4301C121.28 16.8701 119.64 16.3301 118.27 16.3301C116.05 16.3301 114.88 17.7501 114.88 20.1601V23.3401H122.06V26.2801H122.05ZM141.97 32.6301C141.97 33.0401 141.93 33.4801 141.91 33.8301H127.23C127.68 37.7001 130.32 39.6101 133.98 39.6101C137 39.6101 139.33 38.5301 140.93 37.1501V40.1101C138.87 41.6001 136.12 42.4201 133.6 42.4201C127.71 42.4201 123.91 38.5101 123.91 32.6901C123.91 26.9501 127.82 22.9601 133.19 22.9601C138.27 22.9601 141.93 26.9101 141.97 32.6301ZM127.26 31.2401H138.68C138.29 27.9401 136.14 25.8101 133.12 25.8101C129.82 25.8101 127.75 28.0501 127.26 31.2401ZM174.93 28.2701C174.93 36.5101 168.93 42.4401 160.68 42.4401C152.42 42.4401 146.43 36.5001 146.43 28.2701C146.43 20.0401 152.43 14.1001 160.68 14.1001C168.94 14.1001 174.93 20.0301 174.93 28.2701ZM150.05 28.2701C150.05 34.7401 154.63 39.1201 160.69 39.1201C166.75 39.1201 171.33 34.7401 171.33 28.2701C171.33 21.8001 166.75 17.4201 160.69 17.4201C154.63 17.4201 150.05 21.8001 150.05 28.2701ZM198.45 32.6901C198.45 38.3301 194.34 42.4201 189.11 42.4201C186.16 42.4201 183.98 41.2801 182.52 39.5301V49.8901H179.32V23.3601H182.52V25.8601C183.97 24.1101 186.16 22.9701 189.11 22.9701C194.34 22.9601 198.45 27.0501 198.45 32.6901ZM182.33 32.6901C182.33 36.5201 184.96 39.4101 188.74 39.4101C192.61 39.4101 195.15 36.4001 195.15 32.6901C195.15 28.9701 192.55 25.9901 188.74 25.9901C184.96 25.9901 182.33 28.8801 182.33 32.6901ZM215.56 27.5701C214.38 26.7601 211.86 25.7701 209.4 25.7701C206.84 25.7701 205.47 26.8501 205.47 28.5401C205.47 30.0301 206.49 30.7201 208.75 31.0001L210.91 31.2801C214.88 31.8101 217.22 33.4801 217.22 36.5701C217.22 40.1301 214.04 42.4301 208.94 42.4301C206.64 42.4301 203.91 41.7601 201.99 40.5501V37.2401C204.23 38.8901 205.84 39.6201 208.96 39.6201C212.03 39.6201 213.91 38.6201 213.91 36.7701C213.91 35.3901 212.69 34.5301 210.16 34.2101L208 33.9501C203.81 33.4401 202.12 31.5501 202.12 28.7201C202.12 25.1401 204.82 22.9801 209.36 22.9801C211.74 22.9801 213.88 23.4801 215.56 24.3101V27.5701Z" fill="#2A4057"/>
</svg>
